<svg width="320" height="168" viewBox="0 0 320 168" fill="none" xmlns="http://www.w3.org/2000/svg">
<rect width="320" height="168" rx="2" fill="#E01221"/>
<mask id="mask0" mask-type="alpha" maskUnits="userSpaceOnUse" x="0" y="0" width="320" height="168">
<rect width="320" height="168" rx="2" fill="#E01221"/>
</mask>
<g mask="url(#mask0)">
<path d="M344 72.8066L344 95.5L159.693 84.1533L344 72.8066Z" fill="#FC3A1D"/>
<path d="M314.059 -17.8467L325.405 1.80633L160.118 84.1332L314.059 -17.8467Z" fill="#FC3A1D"/>
<path d="M340.934 121.271L335.061 143.191L159.971 84.529L340.934 121.271Z" fill="#FC3A1D"/>
<path d="M324.945 166.766L313.599 186.419L159.658 84.4393L324.945 166.766Z" fill="#FC3A1D"/>
<path d="M298.329 206.193L282.282 222.239L159.981 83.8917L298.329 206.193Z" fill="#FC3A1D"/>
<path d="M218.7 259.447L196.78 265.32L160.038 84.3569L218.7 259.447Z" fill="#FC3A1D"/>
<path d="M148.807 -100L171.5 -100L160.153 84.3067L148.807 -100Z" fill="#FC3A1D"/>
<path d="M58.6128 -69.9053L78.2658 -81.2519L160.593 84.0356L58.6128 -69.9053Z" fill="#FC3A1D"/>
<path d="M197.118 -96.1675L219.038 -90.294L160.376 84.7958L197.118 -96.1675Z" fill="#FC3A1D"/>
<path d="M242.306 -80.4854L261.959 -69.1387L159.979 84.8022L242.306 -80.4854Z" fill="#FC3A1D"/>
<path d="M282.5 -54.0225L298.546 -37.9758L160.198 84.3253L282.5 -54.0225Z" fill="#FC3A1D"/>
<path d="M335.099 26.1787L340.972 48.0988L160.009 84.8408L335.099 26.1787Z" fill="#FC3A1D"/>
<path d="M-24 95.5L-24 72.5L160.307 84L-24 95.5Z" fill="#FC3A1D"/>
<path d="M6.70801 185.806L-4.792 165.888L160.572 83.6935L6.70801 185.806Z" fill="#FC3A1D"/>
<path d="M-20.4004 47.9453L-14.4475 25.729L160.603 84.5392L-20.4004 47.9453Z" fill="#FC3A1D"/>
<path d="M-5.09863 2.41943L6.40138 -17.4992L160.266 84.6135L-5.09863 2.41943Z" fill="#FC3A1D"/>
<path d="M22.0674 -37.9761L38.3309 -54.2395L160.524 84.2167L22.0674 -37.9761Z" fill="#FC3A1D"/>
<path d="M101.535 -90.1406L123.751 -96.0935L160.345 84.9095L101.535 -90.1406Z" fill="#FC3A1D"/>
<path d="M171.5 268L148.5 268L160 83.6933L171.5 268Z" fill="#FC3A1D"/>
<path d="M262.266 237.445L242.348 248.945L160.153 83.581L262.266 237.445Z" fill="#FC3A1D"/>
<path d="M123.792 265.167L101.576 259.214L160.386 84.1635L123.792 265.167Z" fill="#FC3A1D"/>
<path d="M77.9595 249.559L58.0409 238.059L160.154 84.1943L77.9595 249.559Z" fill="#FC3A1D"/>
<path d="M38.3311 222.239L22.0676 205.976L160.524 83.783L38.3311 222.239Z" fill="#FC3A1D"/>
<path d="M-14.4883 143.344L-20.4411 121.128L160.562 84.534L-14.4883 143.344Z" fill="#FC3A1D"/>
</g>
<path d="M224.163 106.227C222.902 105.812 221.581 105.396 220.17 105.064C219.57 99.6907 219.269 94.3728 219.209 88.9717C223.413 77.1171 227.496 65.0964 232 61.828L231.49 60C228.457 61.828 223.593 63.5453 217.378 65.041L217.678 66.869C218.128 66.8136 218.579 66.7305 218.999 66.7305C221.521 66.7305 222.482 68.5032 222.482 71.2175C222.482 73.4057 221.731 76.2031 220.621 79.2499C219.87 81.2164 218.909 83.3491 218.098 85.3987C215.877 79.4714 213.955 73.9319 212.544 68.0046C213.294 67.8661 214.015 67.7276 214.676 67.5892L214.375 65.678C210.232 66.5643 205.668 67.3122 200.714 68.0046L200.924 69.8327C201.525 69.7773 202.095 69.6942 202.636 69.6388C206.329 77.4772 209.061 83.7646 210.922 91.2429C210.772 95.1206 210.562 98.9429 210.022 102.821C208.611 102.544 207.199 102.267 205.728 102.073L205.368 103.901C212.694 105.064 218.879 106.421 223.773 108L224.163 106.227ZM124.33 87.3376C124.991 84.5401 125.801 81.6042 126.702 78.7513C128.324 82.1581 129.885 85.5095 131.356 88.8332C131.206 88.8332 131.056 88.8332 130.906 88.8332C128.534 88.9717 126.162 89.0271 123.88 89.1656C124.03 88.5563 124.18 87.9469 124.33 87.3376ZM112.951 103.762V101.851C111.48 101.99 110.008 102.183 108.597 102.405C107.847 97.0317 107.636 91.5753 107.636 86.1743C107.636 80.247 107.937 74.4582 108.447 69.0017C109.618 69.1956 110.819 69.3341 112.08 69.5557C112.891 73.5718 114.902 77.0617 117.695 79.4991L118.355 79.2222C118.295 77.9204 118.295 76.7017 118.295 75.6215C118.295 73.0179 118.445 70.7744 118.746 68.3924C105.505 66.8967 97.548 65.041 88 61.4957C88.3003 64.6255 88.3603 67.3676 88.3603 70.3589C88.3603 72.3254 88.3603 74.4582 88.2102 76.7571L89.0208 77.034C92.5038 74.3197 94.1852 70.4974 95.0859 66.1212C96.1968 66.4535 97.4579 66.8136 98.6289 67.0629C99.1393 73.9596 99.4395 80.3578 99.4395 86.7559C99.4395 92.5447 99.2294 98.2781 98.5388 104.289C96.8274 104.621 95.3561 105.036 93.8849 105.452L93.8249 107.695C99.0492 106.144 105.415 104.842 112.951 103.762ZM128.384 102.073V100.245H127.933C125.111 100.245 123.189 98.0012 123.189 94.0958C123.189 93.2095 123.249 92.2677 123.49 91.2429C125.922 91.049 128.444 90.966 130.966 90.8275C131.326 90.8275 131.776 90.8275 132.137 90.7721C133.398 93.7634 134.569 96.7825 135.68 99.8292C134.929 99.8846 134.269 99.8846 133.608 99.9677V101.796C141.595 101.242 150.092 100.909 159.039 100.909C163.483 100.909 167.897 100.965 172.19 101.103C172.19 97.835 172.19 94.1512 172.941 89.5811L172.28 89.2487C169.098 91.5753 166.726 95.0375 165.405 99.1368C163.273 99.0814 161.201 99.0814 159.039 99.0814C158.889 99.0814 158.679 99.0814 158.529 99.0814C158.078 94.3728 157.868 89.7473 157.868 85.1771C157.868 80.8009 158.078 76.4524 158.379 72.2978C158.589 72.2978 158.829 72.2978 159.039 72.2978H162.732V70.4697H159.039C154.295 70.4697 149.641 70.4143 145.138 70.1927V72.0208C146.459 72.0762 147.87 72.1593 149.281 72.1593C149.491 76.7294 149.641 81.161 149.641 85.4541C149.641 90.0796 149.491 94.5943 149.131 99.2199C148.23 99.2199 147.269 99.2752 146.399 99.2752C139.823 88.5009 135.98 79.8315 132.287 69.1402L126.972 68.7248C125.501 74.5967 123.49 82.629 121.148 89.2487C118.205 97.7796 117.004 99.94 114.872 101.657V103.485C119.076 102.876 123.58 102.46 128.384 102.073ZM199.843 92.0462L199.183 91.7138C196.27 93.8465 194.018 96.8656 192.757 100.522C190.505 100.328 188.193 100.189 185.822 99.9677C185.311 95.3422 185.071 90.689 185.011 85.9804C185.521 85.9804 185.972 85.9804 186.422 85.9804C186.782 85.9804 187.233 85.9804 187.593 85.9804C187.743 85.9804 187.953 85.9804 188.103 85.9804C189.004 88.584 190.535 90.0796 192.247 91.2983L193.058 90.966C192.757 89.2487 192.607 86.8667 192.607 84.8171C192.607 82.629 192.757 80.4409 193.058 78.6682L192.247 78.3358C190.475 79.5545 188.914 81.1887 188.043 83.9862C187.893 83.9862 187.743 83.9862 187.593 83.9862C187.233 83.9862 186.782 83.9862 186.332 83.9862C185.882 83.9862 185.431 83.9862 185.071 83.9862C185.071 79.693 185.281 75.4553 185.671 71.3006C188.103 71.1068 190.475 70.9683 192.847 70.6913C193.988 74.3474 196.33 77.3387 199.213 79.416L199.873 79.0837C199.483 76.5909 199.363 74.4859 199.363 72.4085C199.363 70.9683 199.423 69.6111 199.573 68.1708C191.376 69.1956 181.978 69.8881 172.07 70.2204L172.13 71.9931C173.541 71.9377 175.013 71.9377 176.424 71.8546C176.724 76.7571 176.934 81.5488 176.934 86.1743C176.934 90.6059 176.724 94.9821 176.334 99.4137C175.673 99.4137 175.013 99.3583 174.352 99.3583L174.202 101.186C183.299 101.519 191.857 102.211 199.543 103.153C199.393 101.796 199.333 100.439 199.333 98.9983C199.333 96.8656 199.483 94.5389 199.843 92.0462Z" fill="#EFEEE6"/>
<path d="M29.6309 145.01V148.01H28.2809C27.6809 148.01 27.2209 147.59 27.2209 147V145.01H26.1809V147C26.1809 148.15 27.1109 149 28.2809 149H29.6309V152H30.6709V145.01H29.6309ZM39.0374 144.86L34.5974 149.64V145.01H33.5574V152.14H33.5774L38.0174 147.35V152H39.0574V144.86H39.0374ZM43.1261 152H44.1661V146H45.9761V145.01H41.3061V146H43.1261V152ZM51.8823 152H52.9723L49.6623 144.86H49.6423L46.3323 152H47.4023L48.3323 149.99H50.9523L51.8823 152ZM48.7823 149L49.6423 147.14L50.5023 149H48.7823ZM57.6705 144.73C58.5505 144.73 59.2405 144.24 59.2405 143.28H58.4305C58.4305 143.68 58.1605 144.02 57.6605 144.02C57.1505 144.02 56.8905 143.7 56.8905 143.28H56.0605C56.0605 144.24 56.7805 144.73 57.6705 144.73ZM60.1605 144.86L55.7205 149.64V145.01H54.6805V152.14H54.7005L59.1405 147.35V152H60.1805V144.86H60.1605ZM64.2491 152H65.2891V146H67.0991V145.01H62.4291V146H64.2491V152ZM73.1482 146V145.01H69.3582V152H73.1482V151.01H70.3982V149H73.1482V148.01H70.3982V146H73.1482ZM81.0697 148.01H79.9197V146H82.9497V145.01H78.8797V152H81.0697C82.2297 152 83.1697 151.15 83.1697 150.01C83.1697 148.86 82.2297 148.01 81.0697 148.01ZM81.0697 151.01H79.9197V149H81.0697C81.6697 149 82.1297 149.42 82.1297 150.01C82.1297 150.59 81.6697 151.01 81.0697 151.01ZM89.4568 146V145.01H85.6668V152H89.4568V151.01H86.7068V149H89.4568V148.01H86.7068V146H89.4568ZM95.2402 152H96.3002V151.01H95.2402C93.6402 151.01 92.5702 150 92.5702 148.51C92.5702 147.01 93.6402 146 95.2402 146H96.3002V145.01H95.2402C93.0802 145.01 91.5102 146.46 91.5102 148.51C91.5102 150.55 93.0802 152 95.2402 152ZM104.35 145.01H98.8504V152H99.8904V146H103.31V152H104.35V145.01ZM112.689 152L109.379 144.86H109.359L106.049 152H107.169L109.369 147.24L111.569 152H112.689ZM118.855 152H119.945L116.635 144.86H116.615L113.305 152H114.375L115.305 149.99H117.925L118.855 152ZM115.755 149L116.615 147.14L117.475 149H115.755ZM122.12 152H123.16V146H124.97V145.01H120.3V146H122.12V152ZM131.689 145.01V148.01H128.269V145.01H127.229V152H128.269V149H131.689V152H132.729V145.01H131.689ZM138.678 152.15C140.748 152.15 142.418 150.53 142.418 148.5C142.418 146.47 140.748 144.85 138.678 144.85C136.608 144.85 134.938 146.47 134.938 148.5C134.938 150.53 136.608 152.15 138.678 152.15ZM138.678 151.16C137.168 151.16 135.998 150.01 135.998 148.5C135.998 146.99 137.168 145.84 138.678 145.84C140.198 145.84 141.358 146.99 141.358 148.5C141.358 150.01 140.198 151.16 138.678 151.16ZM144.701 152.06C145.101 152.06 145.421 151.75 145.421 151.35C145.421 150.95 145.101 150.63 144.701 150.63C144.301 150.63 143.971 150.95 143.971 151.35C143.971 151.75 144.301 152.06 144.701 152.06ZM153.688 152H154.748V151.01H153.688C152.088 151.01 151.018 150 151.018 148.51C151.018 147.01 152.088 146 153.688 146H154.748V145.01H153.688C151.528 145.01 149.958 146.46 149.958 148.51C149.958 150.55 151.528 152 153.688 152ZM162.748 152L159.438 144.86H159.418L156.108 152H157.228L159.428 147.24L161.628 152H162.748ZM167.775 145.01L166.065 148.69L164.365 145.01H163.255L165.515 149.89L164.535 152H165.625L168.865 145.01H167.775ZM177.382 145.01V151.01H175.182V145.01H174.092V151.01H171.892V145.01H170.852V152H178.422V145.01H177.382ZM185.681 152H186.771L183.461 144.86H183.441L180.131 152H181.201L182.131 149.99H184.751L185.681 152ZM182.581 149L183.441 147.14L184.301 149H182.581ZM191.469 144.73C192.349 144.73 193.039 144.24 193.039 143.28H192.229C192.229 143.68 191.959 144.02 191.459 144.02C190.949 144.02 190.689 143.7 190.689 143.28H189.859C189.859 144.24 190.579 144.73 191.469 144.73ZM193.959 144.86L189.519 149.64V145.01H188.479V152.14H188.499L192.939 147.35V152H193.979V144.86H193.959ZM198.048 152H199.088V146H200.898V145.01H196.228V146H198.048V152ZM206.947 146V145.01H203.157V152H206.947V151.01H204.197V149H206.947V148.01H204.197V146H206.947ZM218.179 145.01H212.679V152H213.719V146H217.139V152H218.179V145.01ZM224.127 152.15C226.197 152.15 227.867 150.53 227.867 148.5C227.867 146.47 226.197 144.85 224.127 144.85C222.057 144.85 220.387 146.47 220.387 148.5C220.387 150.53 222.057 152.15 224.127 152.15ZM224.127 151.16C222.617 151.16 221.447 150.01 221.447 148.5C221.447 146.99 222.617 145.84 224.127 145.84C225.647 145.84 226.807 146.99 226.807 148.5C226.807 150.01 225.647 151.16 224.127 151.16ZM238.598 145.01H233.098V152H234.138V146H237.558V152H238.598V145.01ZM244.547 152.15C246.617 152.15 248.287 150.53 248.287 148.5C248.287 146.47 246.617 144.85 244.547 144.85C242.477 144.85 240.807 146.47 240.807 148.5C240.807 150.53 242.477 152.15 244.547 152.15ZM244.547 151.16C243.037 151.16 241.867 150.01 241.867 148.5C241.867 146.99 243.037 145.84 244.547 145.84C246.067 145.84 247.227 146.99 247.227 148.5C247.227 150.01 246.067 151.16 244.547 151.16ZM255.799 151.01L252.949 144.86H252.929L250.079 151.01H249.239V153.51H250.219V152H255.729V153.51H256.719V151.01H255.799ZM251.199 151.01L252.939 147.24L254.679 151.01H251.199ZM264.214 145.01H258.714V152H259.754V146H263.174V152H264.214V145.01ZM272.582 144.86L268.142 149.64V145.01H267.102V152.14H267.122L271.562 147.35V152H272.602V144.86H272.582ZM278.541 152H279.601V151.01H278.541C276.941 151.01 275.871 150 275.871 148.51C275.871 147.01 276.941 146 278.541 146H279.601V145.01H278.541C276.381 145.01 274.811 146.46 274.811 148.51C274.811 150.55 276.381 152 278.541 152ZM286.911 152L284.101 148.5L286.911 145.01H285.631L283.191 148.07V145.01H282.151V152H283.191V148.93L285.631 152H286.911ZM292.836 146V145.01H289.046V152H292.836V151.01H290.086V149H292.836V148.01H290.086V146H292.836Z" fill="#EFEEE6"/>
</svg>
