<svg width="1012" height="506" viewBox="0 0 1012 506" fill="none" xmlns="http://www.w3.org/2000/svg">
<rect width="1012" height="506" fill="#FC3A1D"/>
<path d="M20 44C20 30.7452 30.7452 20 44 20H968C981.255 20 992 30.7452 992 44V486H20V44Z" fill="#E01221"/>
<path d="M50 68C50 58.0589 58.0589 50 68 50H944C953.941 50 962 58.0589 962 68V456H50V68Z" fill="#FC3A1D"/>
<path d="M100 114C100 106.268 106.268 100 114 100H898C905.732 100 912 106.268 912 114V406H100V114Z" fill="#E01221"/>
<path d="M715.348 305.387C711.381 304.071 707.225 302.755 702.785 301.703C700.896 284.687 699.952 267.847 699.763 250.744C712.986 213.204 725.832 175.138 740 164.789L738.394 159C728.854 164.789 713.553 170.227 694.001 174.963L694.946 180.752C696.362 180.576 697.779 180.313 699.102 180.313C707.036 180.313 710.058 185.927 710.058 194.522C710.058 201.451 707.697 210.31 704.202 219.958C701.841 226.185 698.818 232.939 696.268 239.429C689.278 220.66 683.233 203.118 678.794 184.348C681.155 183.909 683.422 183.471 685.5 183.032L684.556 176.98C671.521 179.787 657.164 182.155 641.579 184.348L642.24 190.137C644.129 189.961 645.924 189.698 647.624 189.523C659.242 214.344 667.837 234.254 673.693 257.936C673.221 270.215 672.56 282.319 670.86 294.598C666.421 293.721 661.981 292.844 657.353 292.23L656.22 298.019C679.266 301.703 698.724 306.001 714.12 311L715.348 305.387ZM401.289 245.569C403.367 236.71 405.917 227.413 408.751 218.379C413.851 229.167 418.763 239.78 423.391 250.305C422.919 250.305 422.447 250.305 421.974 250.305C414.513 250.744 407.051 250.919 399.872 251.358C400.344 249.428 400.817 247.499 401.289 245.569ZM365.491 297.58V291.529C360.863 291.967 356.235 292.581 351.795 293.283C349.434 276.267 348.773 258.988 348.773 241.885C348.773 223.115 349.717 204.784 351.323 187.505C355.007 188.119 358.785 188.558 362.752 189.26C365.302 201.977 371.631 213.029 380.415 220.747L382.493 219.87C382.304 215.748 382.304 211.889 382.304 208.468C382.304 200.223 382.776 193.119 383.721 185.576C342.067 180.84 317.036 174.963 287 163.736C287.945 173.647 288.133 182.331 288.133 191.803C288.133 198.031 288.133 204.784 287.661 212.064L290.211 212.941C301.168 204.346 306.457 192.242 309.291 178.384C312.786 179.436 316.753 180.576 320.437 181.366C322.042 203.205 322.987 223.466 322.987 243.727C322.987 262.058 322.326 280.214 320.153 299.247C314.769 300.299 310.141 301.615 305.513 302.931L305.324 310.035C321.759 305.123 341.783 301.001 365.491 297.58ZM414.04 292.23V286.441H412.623C403.745 286.441 397.7 279.337 397.7 266.97C397.7 264.163 397.889 261.181 398.644 257.936C406.295 257.322 414.229 257.059 422.163 256.62C423.297 256.62 424.714 256.62 425.847 256.445C429.814 265.917 433.498 275.478 436.992 285.126C434.631 285.301 432.553 285.301 430.475 285.564V291.353C455.6 289.599 482.33 288.546 510.477 288.546C524.457 288.546 538.341 288.722 551.848 289.16C551.848 278.811 551.848 267.145 554.21 252.673L552.132 251.621C542.119 258.988 534.658 269.952 530.502 282.933C523.795 282.758 517.278 282.758 510.477 282.758C510.005 282.758 509.344 282.758 508.872 282.758C507.455 267.847 506.794 253.2 506.794 238.728C506.794 224.87 507.455 211.099 508.399 197.943C509.061 197.943 509.816 197.943 510.477 197.943H522.095V192.154H510.477C495.554 192.154 480.913 191.979 466.745 191.277V197.066C470.901 197.241 475.341 197.504 479.78 197.504C480.441 211.976 480.913 226.01 480.913 239.605C480.913 254.252 480.441 268.549 479.308 283.196C476.474 283.196 473.452 283.372 470.712 283.372C450.027 249.253 437.937 221.8 426.319 187.944L409.601 186.628C404.973 205.223 398.644 230.658 391.277 251.621C382.02 278.635 378.242 285.477 371.536 290.915V296.703C384.76 294.774 398.928 293.458 414.04 292.23ZM638.84 260.48L636.762 259.427C627.6 266.181 620.516 275.741 616.549 287.319C609.465 286.705 602.192 286.266 594.73 285.564C593.124 270.917 592.369 256.182 592.18 241.271C593.786 241.271 595.202 241.271 596.619 241.271C597.753 241.271 599.17 241.271 600.303 241.271C600.775 241.271 601.436 241.271 601.909 241.271C604.742 249.516 609.559 254.252 614.943 258.111L617.494 257.059C616.549 251.621 616.077 244.078 616.077 237.587C616.077 230.658 616.549 223.729 617.494 218.116L614.943 217.063C609.371 220.923 604.459 226.098 601.72 234.956C601.247 234.956 600.775 234.956 600.303 234.956C599.17 234.956 597.753 234.956 596.336 234.956C594.919 234.956 593.502 234.956 592.369 234.956C592.369 221.361 593.03 207.942 594.258 194.785C601.909 194.171 609.371 193.733 616.832 192.856C620.422 204.433 627.789 213.906 636.857 220.484L638.935 219.432C637.707 211.538 637.329 204.872 637.329 198.294C637.329 193.733 637.518 189.435 637.99 184.874C612.204 188.119 582.64 190.312 551.47 191.365L551.659 196.978C556.099 196.803 560.727 196.803 565.166 196.54C566.111 212.064 566.772 227.238 566.772 241.885C566.772 255.919 566.111 269.777 564.883 283.81C562.805 283.81 560.727 283.635 558.649 283.635L558.177 289.424C586.796 290.476 613.715 292.669 637.896 295.651C637.423 291.353 637.234 287.055 637.234 282.495C637.234 275.741 637.707 268.373 638.84 260.48Z" fill="#EFEEE6"/>
<path d="M219.788 361.622V368.222H216.818C215.498 368.222 214.486 367.298 214.486 366V361.622H212.198V366C212.198 368.53 214.244 370.4 216.818 370.4H219.788V377H222.076V361.622H219.788ZM240.482 361.292L230.714 371.808V361.622H228.426V377.308H228.47L238.238 366.77V377H240.526V361.292H240.482ZM249.477 377H251.765V363.8H255.747V361.622H245.473V363.8H249.477V377ZM268.741 377H271.139L263.857 361.292H263.813L256.531 377H258.885L260.931 372.578H266.695L268.741 377ZM261.921 370.4L263.813 366.308L265.705 370.4H261.921ZM281.475 361.006C283.411 361.006 284.929 359.928 284.929 357.816H283.147C283.147 358.696 282.553 359.444 281.453 359.444C280.331 359.444 279.759 358.74 279.759 357.816H277.933C277.933 359.928 279.517 361.006 281.475 361.006ZM286.953 361.292L277.185 371.808V361.622H274.897V377.308H274.941L284.709 366.77V377H286.997V361.292H286.953ZM295.948 377H298.236V363.8H302.218V361.622H291.944V363.8H295.948V377ZM315.526 363.8V361.622H307.188V377H315.526V374.822H309.476V370.4H315.526V368.222H309.476V363.8H315.526ZM332.953 368.222H330.423V363.8H337.089V361.622H328.135V377H332.953C335.505 377 337.573 375.13 337.573 372.622C337.573 370.092 335.505 368.222 332.953 368.222ZM332.953 374.822H330.423V370.4H332.953C334.273 370.4 335.285 371.324 335.285 372.622C335.285 373.898 334.273 374.822 332.953 374.822ZM351.405 363.8V361.622H343.067V377H351.405V374.822H345.355V370.4H351.405V368.222H345.355V363.8H351.405ZM364.129 377H366.461V374.822H364.129C360.609 374.822 358.255 372.6 358.255 369.322C358.255 366.022 360.609 363.8 364.129 363.8H366.461V361.622H364.129C359.377 361.622 355.923 364.812 355.923 369.322C355.923 373.81 359.377 377 364.129 377ZM384.171 361.622H372.071V377H374.359V363.8H381.883V377H384.171V361.622ZM402.516 377L395.234 361.292H395.19L387.908 377H390.372L395.212 366.528L400.052 377H402.516ZM416.081 377H418.479L411.197 361.292H411.153L403.871 377H406.225L408.271 372.578H414.035L416.081 377ZM409.261 370.4L411.153 366.308L413.045 370.4H409.261ZM423.265 377H425.553V363.8H429.535V361.622H419.261V363.8H423.265V377ZM444.316 361.622V368.222H436.792V361.622H434.504V377H436.792V370.4H444.316V377H446.604V361.622H444.316ZM459.692 377.33C464.246 377.33 467.92 373.766 467.92 369.3C467.92 364.834 464.246 361.27 459.692 361.27C455.138 361.27 451.464 364.834 451.464 369.3C451.464 373.766 455.138 377.33 459.692 377.33ZM459.692 375.152C456.37 375.152 453.796 372.622 453.796 369.3C453.796 365.978 456.37 363.448 459.692 363.448C463.036 363.448 465.588 365.978 465.588 369.3C465.588 372.622 463.036 375.152 459.692 375.152ZM472.943 377.132C473.823 377.132 474.527 376.45 474.527 375.57C474.527 374.69 473.823 373.986 472.943 373.986C472.063 373.986 471.337 374.69 471.337 375.57C471.337 376.45 472.063 377.132 472.943 377.132ZM492.713 377H495.045V374.822H492.713C489.193 374.822 486.839 372.6 486.839 369.322C486.839 366.022 489.193 363.8 492.713 363.8H495.045V361.622H492.713C487.961 361.622 484.507 364.812 484.507 369.322C484.507 373.81 487.961 377 492.713 377ZM512.645 377L505.363 361.292H505.319L498.037 377H500.501L505.341 366.528L510.181 377H512.645ZM523.706 361.622L519.944 369.718L516.204 361.622H513.762L518.734 372.358L516.578 377H518.976L526.104 361.622H523.706ZM544.841 361.622V374.822H540.001V361.622H537.603V374.822H532.763V361.622H530.475V377H547.129V361.622H544.841ZM563.098 377H565.496L558.214 361.292H558.17L550.888 377H553.242L555.288 372.578H561.052L563.098 377ZM556.278 370.4L558.17 366.308L560.062 370.4H556.278ZM575.832 361.006C577.768 361.006 579.286 359.928 579.286 357.816H577.504C577.504 358.696 576.91 359.444 575.81 359.444C574.688 359.444 574.116 358.74 574.116 357.816H572.29C572.29 359.928 573.874 361.006 575.832 361.006ZM581.31 361.292L571.542 371.808V361.622H569.254V377.308H569.298L579.066 366.77V377H581.354V361.292H581.31ZM590.306 377H592.594V363.8H596.576V361.622H586.302V363.8H590.306V377ZM609.883 363.8V361.622H601.545V377H609.883V374.822H603.833V370.4H609.883V368.222H603.833V363.8H609.883ZM634.593 361.622H622.493V377H624.781V363.8H632.305V377H634.593V361.622ZM647.68 377.33C652.234 377.33 655.908 373.766 655.908 369.3C655.908 364.834 652.234 361.27 647.68 361.27C643.126 361.27 639.452 364.834 639.452 369.3C639.452 373.766 643.126 377.33 647.68 377.33ZM647.68 375.152C644.358 375.152 641.784 372.622 641.784 369.3C641.784 365.978 644.358 363.448 647.68 363.448C651.024 363.448 653.576 365.978 653.576 369.3C653.576 372.622 651.024 375.152 647.68 375.152ZM679.517 361.622H667.417V377H669.705V363.8H677.229V377H679.517V361.622ZM692.604 377.33C697.158 377.33 700.832 373.766 700.832 369.3C700.832 364.834 697.158 361.27 692.604 361.27C688.05 361.27 684.376 364.834 684.376 369.3C684.376 373.766 688.05 377.33 692.604 377.33ZM692.604 375.152C689.282 375.152 686.708 372.622 686.708 369.3C686.708 365.978 689.282 363.448 692.604 363.448C695.948 363.448 698.5 365.978 698.5 369.3C698.5 372.622 695.948 375.152 692.604 375.152ZM717.359 374.822L711.089 361.292H711.045L704.775 374.822H702.927V380.322H705.083V377H717.205V380.322H719.383V374.822H717.359ZM707.239 374.822L711.067 366.528L714.895 374.822H707.239ZM735.87 361.622H723.77V377H726.058V363.8H733.582V377H735.87V361.622ZM754.281 361.292L744.513 371.808V361.622H742.225V377.308H742.269L752.037 366.77V377H754.325V361.292H754.281ZM767.39 377H769.722V374.822H767.39C763.87 374.822 761.516 372.6 761.516 369.322C761.516 366.022 763.87 363.8 767.39 363.8H769.722V361.622H767.39C762.638 361.622 759.184 364.812 759.184 369.322C759.184 373.81 762.638 377 767.39 377ZM785.805 377L779.623 369.3L785.805 361.622H782.989L777.621 368.354V361.622H775.333V377H777.621V370.246L782.989 377H785.805ZM798.839 363.8V361.622H790.501V377H798.839V374.822H792.789V370.4H798.839V368.222H792.789V363.8H798.839Z" fill="#EFEEE6"/>
</svg>
